<?xml version="1.0" encoding="utf-8"?>
<!-- Generator: Adobe Illustrator 21.0.2, SVG Export Plug-In . SVG Version: 6.00 Build 0)  -->
<svg version="1.1" id="Layer_1" xmlns="http://www.w3.org/2000/svg" xmlns:xlink="http://www.w3.org/1999/xlink" x="0px" y="0px"
	 viewBox="0 0 24 24" style="enable-background:new 0 0 24 24;" xml:space="preserve">
<style type="text/css">
	.st0{fill:none;}
	.st1{fill:#FFFFFF;}
</style>
<path class="st0" d="M0,0h24v24H0V0z"/>
<g>
	<path class="st1" d="M3,17c0,0.5,0.5,1,1,1h16c0.5,0,1-0.5,1-1l0,0c0-0.5-0.5-1-1-1H4C3.5,16,3,16.5,3,17L3,17z M3,12
		c0,0.6,0.5,1,1,1h16c0.5,0,1-0.4,1-1l0,0c0-0.6-0.5-1-1-1H4C3.5,11,3,11.4,3,12L3,12z M4,6C3.5,6,3,6.4,3,7l0,0c0,0.6,0.5,1,1,1h16
		c0.5,0,1-0.4,1-1l0,0c0-0.6-0.5-1-1-1H4z"/>
</g>
</svg>
