<?xml version="1.0" encoding="utf-8"?>
<!-- Generator: Adobe Illustrator 21.0.2, SVG Export Plug-In . SVG Version: 6.00 Build 0)  -->
<svg version="1.1" id="logo_1_" xmlns="http://www.w3.org/2000/svg" xmlns:xlink="http://www.w3.org/1999/xlink" x="0px" y="0px"
	 viewBox="0 0 376.1 349" style="enable-background:new 0 0 376.1 349;" xml:space="preserve">
<style type="text/css">
	.st0{fill:#FFFFFF;}
</style>
<g id="icon">
	<path class="st0" d="M269,178.8c-10.7-6.2-24.8-7.4-44.4-3.9c-6.1,1.1-11.6,2.4-15.5,3.5c2.9-2.9,7-7.1,11.1-12
		C233,151.2,239,138.3,239,126c0-28.1-22.8-50.9-50.9-50.9s-50.9,22.8-50.9,50.9c0,12.3,6,25.2,18.8,40.4c4.1,4.9,8.2,9.2,11.1,12
		c-3.9-1-9.4-2.4-15.5-3.5c-19.6-3.5-33.7-2.2-44.4,3.9c-24.3,14-32.7,45.2-18.6,69.6c6.8,11.8,17.8,20.2,30.9,23.7
		c4.4,1.2,8.9,1.8,13.3,1.8c8.8,0,17.5-2.3,25.3-6.8c10.7-6.2,18.8-17.7,25.6-36.4c1.9-5.1,3.3-10,4.4-13.8c1,3.8,2.5,8.7,4.4,13.8
		c6.8,18.7,14.9,30.3,25.6,36.4c11.8,6.8,25.5,8.6,38.6,5.1c13.2-3.5,24.1-11.9,30.9-23.7c4.6-8,6.8-16.7,6.8-25.4
		C294.4,205.3,285.3,188.2,269,178.8z M143.3,241.1L143.3,241.1c-10.1,5.8-23,2.4-28.8-7.7c-5.8-10.1-2.3-23,7.7-28.8
		c2.3-1.3,5.8-1.8,10-1.8c8.4,0,19.4,2.2,27.7,4.5C156.6,219.7,150.1,237.2,143.3,241.1z M261.8,233.4c-2.8,4.9-7.4,8.4-12.8,9.8
		c-5.4,1.5-11.1,0.7-16-2.1c-6.9-4-13.3-21.4-16.6-33.9c12.4-3.5,30.8-6.6,37.7-2.6C264.1,210.4,267.6,223.3,261.8,233.4z
		 M188.1,157.2c-9.2-9-21.1-23.4-21.1-31.3c0-11.6,9.5-21.1,21.1-21.1s21.1,9.5,21.1,21.1C209.2,133.8,197.3,148.2,188.1,157.2z"/>
</g>
</svg>
