<?xml version="1.0" encoding="utf-8"?>
<!-- Generator: Adobe Illustrator 21.0.2, SVG Export Plug-In . SVG Version: 6.00 Build 0)  -->
<svg version="1.1" id="logo_1_" xmlns="http://www.w3.org/2000/svg" xmlns:xlink="http://www.w3.org/1999/xlink" x="0px" y="0px"
	 viewBox="0 0 1191 349" style="enable-background:new 0 0 1191 349;" xml:space="preserve">
<style type="text/css">
	.st0{fill:#FFFFFF;}
</style>
<g id="logo">
	<path class="st0" d="M752.3,217.3c-2.3,2.5-4.5,4.8-6.6,7.1s-4.2,4.6-6.3,6.8c-0.7,0.7-0.9,1.4-0.9,2.4c0,10.3,0,20.7,0,31
		c0,0.6,0,1.1,0,1.8c-14.2,0-28.4,0-42.6,0c0-67.7,0-135.4,0-203.1c14.1,0,28.3,0,42.5,0c0,36.7,0,73.4,0,110.6
		c0.6-0.6,0.9-0.9,1.2-1.2c11.2-12.4,22.4-24.8,33.6-37.2c2.4-2.6,4.7-5.2,7.1-7.8c0.4-0.4,1.1-0.8,1.6-0.8c17.8,0,35.7,0,53.5,0
		c0.1,0,0.3,0,0.7,0.1c-18.2,19.6-36.3,39.1-54.4,58.6c18.5,26.9,37,53.7,55.5,80.7c-0.5,0.1-2.7,0-3,0c-16.6,0-30.5,0-47.1,0
		c-1,0-2.2-0.3-2.7-1c-10.3-15.4-20.6-30.9-31-46.3C753.1,218.5,752.8,218,752.3,217.3z"/>
	<path class="st0" d="M683.1,171.2c-12.8,3.9-25.4,7.7-38,11.5c-0.7-1.6-1.2-3.2-2-4.8c-4.4-9.3-11.7-14.6-22.1-15.7
		c-7.1-0.7-13.8,0.2-20.1,3.6c-6.5,3.6-10.9,9.1-13.5,15.9c-3.4,9.2-3.7,18.6-0.6,27.9c4.8,14.1,16.4,22,31.4,21.7
		c6-0.1,11.8-1.3,16.8-5c5.1-3.8,8.9-8.7,11-14.7c0.1-0.3,0.2-0.6,0.4-1.1c12.5,3.8,25,7.6,37.5,11.5c-1.6,6.7-4.3,12.9-8.1,18.5
		c-11,16.5-26.7,26-46,29.1c-18.1,2.9-35.5,0.1-51.4-9.3c-18.2-10.7-29.8-26.5-34.2-47.2c-4.1-19.1-1.7-37.5,8.1-54.6
		c9.1-15.9,22.7-26.6,40.1-32.3c10.6-3.5,21.6-4.2,32.7-3.1c12.3,1.2,23.6,5.2,33.7,12.3C671.4,144.2,679.2,156.4,683.1,171.2z"/>
	<g>
		<path class="st0" d="M496,126.8l-2.4,11.5c-2-1.7-4-3.5-6.3-5c-15.9-10.7-34.2-13.4-54.2-8.1c-19.8,5.2-34.2,18.1-42.7,38.3
			c-4.5,10.6-6.6,22.3-6.2,35.7c0.4,14.7,3.7,27.4,10.3,38.8c7.5,13.1,18.3,22.5,31.9,28c7.9,3.2,16.2,4.7,24.8,4.7
			c3.9,0,7.9-0.3,12-1c11.4-1.9,21.4-6.5,29.6-13.9c0.3-0.3,0.6-0.5,0.8-0.8l2.3,11.3h34.4V126.8H496z M441.7,230.8
			c-9.8-5-16.1-13.2-18.5-24.3c-1.9-8.7-1.5-16.9,1.3-24.3c5.1-13.4,14.5-21.1,27.8-22.8c1.8-0.2,3.7-0.4,5.4-0.4
			c8.2,0,15.6,2.6,22,7.8c7.5,6.1,11.7,14.4,12.5,24.7v0.4c0.1,0.7,0.1,1.4,0.1,2.1c0,0.6,0,1.2,0,1.7v0.8l0,0
			c0.1,8-1.3,14.4-4.4,19.9c-5.3,9.5-13.5,15.2-24.3,17.2C455.6,235.2,448.3,234.2,441.7,230.8z"/>
	</g>
	<g>
		<path class="st0" d="M963.6,167.2c-6.3-17.5-17.9-30.2-34.3-37.9c-9.4-4.4-19.4-6.6-29.9-6.6c-5,0-10.1,0.5-15.3,1.5
			c-22.5,4.4-38.8,17.2-48.6,38.1c-5.2,11.3-7.5,23.6-7,37.8c0.2,6.7,1.1,12.6,2.7,18.2c6,21.1,19,36.4,38.8,45.5
			c9.9,4.5,20.7,6.7,33,6.7c0.8,0,1.7,0,2.5,0c13.3-0.3,25.6-3.6,36.8-9.8c5.7-3.1,18.4-14.3,18.4-14.3l-18.2-21.8l-2.7-3.2
			l-2.4-2.9c0,0-10.3,7.7-19.8,11.9c-4.9,2.2-9.9,2.9-14.7,2.9c-2.8,0-5.7-0.4-8.5-1c-9.1-2.3-15.7-7.6-20.2-16.4
			c-0.4-0.7-0.7-1.4-1-2.2h93.1l0.6-4C969.2,193.9,968.2,179.9,963.6,167.2z M898.7,160.1c14.3,0,22.9,8.8,26,18.8h-52.3
			c1.4-3.9,3.8-7.6,6.7-10.7c3.3-3.4,9-7.5,17.3-8C897.2,160.1,898,160.1,898.7,160.1z"/>
	</g>
	<g>
		<path class="st0" d="M1115.4,167.2c-6.3-17.5-17.9-30.3-34.4-37.9c-9.4-4.4-19.4-6.6-29.9-6.6c-5,0-10.1,0.5-15.3,1.5
			c-22.5,4.4-38.8,17.2-48.6,38.1c-5.2,11.3-7.5,23.6-7,37.8c0.2,6.7,1.1,12.6,2.7,18.2c6,21.1,19,36.4,38.8,45.5
			c9.9,4.5,20.7,6.8,33,6.8c0.8,0,1.7,0,2.5,0c13.3-0.3,25.6-3.6,36.8-9.8c5.7-3.1,18.4-14.3,18.4-14.3l-18.2-21.8l-2.7-3.2
			l-2.4-2.9c0,0-10.3,7.7-19.8,11.9c-4.9,2.2-9.9,2.9-14.7,2.9c-2.8,0-5.7-0.4-8.5-1c-9.1-2.3-15.7-7.6-20.2-16.4
			c-0.4-0.7-0.7-1.4-1-2.2h93.1l0.6-4C1121.1,193.9,1120,179.9,1115.4,167.2z M1050.6,160.1c14.3,0,22.9,8.8,26,18.8h-52.3
			c1.4-3.9,3.8-7.6,6.7-10.7c3.3-3.4,9-7.5,17.3-8C1049.1,160.1,1049.8,160.1,1050.6,160.1z"/>
	</g>
</g>
<g id="icon">
	<path class="st0" d="M288.9,201c-10.7-6.2-24.8-7.4-44.4-3.9c-6.1,1.1-11.6,2.4-15.5,3.5c2.9-2.9,7-7.1,11.1-12
		c12.8-15.2,18.8-28.1,18.8-40.4c0-28.1-22.8-50.9-50.9-50.9s-50.9,22.8-50.9,50.9c0,12.3,6,25.2,18.8,40.4c4.1,4.9,8.2,9.2,11.1,12
		c-3.9-1-9.4-2.4-15.5-3.5c-19.6-3.5-33.7-2.2-44.4,3.9c-24.3,14-32.7,45.2-18.6,69.6c6.8,11.8,17.8,20.2,30.9,23.7
		c4.4,1.2,8.9,1.8,13.3,1.8c8.8,0,17.5-2.3,25.3-6.8c10.7-6.2,18.8-17.7,25.6-36.4c1.9-5.1,3.3-10,4.4-13.8c1,3.8,2.5,8.7,4.4,13.8
		c6.8,18.7,14.9,30.3,25.6,36.4c11.8,6.8,25.5,8.6,38.6,5.1c13.2-3.5,24.1-11.9,30.9-23.7c4.6-8,6.8-16.7,6.8-25.4
		C314.3,227.5,305.2,210.4,288.9,201z M163.2,263.3L163.2,263.3c-10.1,5.8-23,2.4-28.8-7.7c-5.8-10.1-2.3-23,7.7-28.8
		c2.3-1.3,5.8-1.8,10-1.8c8.4,0,19.4,2.2,27.7,4.5C176.5,241.9,170,259.4,163.2,263.3z M281.7,255.6c-2.8,4.9-7.4,8.4-12.8,9.8
		c-5.4,1.5-11.1,0.7-16-2.1c-6.9-4-13.3-21.4-16.6-33.9c12.4-3.5,30.8-6.6,37.7-2.6C284,232.6,287.5,245.5,281.7,255.6z M208,179.4
		c-9.2-9-21.1-23.4-21.1-31.3c0-11.6,9.5-21.1,21.1-21.1s21.1,9.5,21.1,21.1C229.1,156,217.2,170.4,208,179.4z"/>
</g>
</svg>
